<svg xmlns="http://www.w3.org/2000/svg" viewBox="0 0 582.35 146.66"><g id="Layer_2" data-name="Layer 2"><g id="DISEÃO"><path d="M160.44,45.43q-21.06,0-35.63,14.17T110.23,95a50,50,0,0,0,15,36.45q15,15.18,39.88,15.18,21.67,0,35.23-14.37t13.56-35.64q0-21.45-15-36.34T160.44,45.43ZM183.92,130q-6.07,9-15.79,9-14.77,0-24.4-16a68.17,68.17,0,0,1-9.61-35.83q0-16.4,6.38-25.21a20.26,20.26,0,0,1,17.31-8.81q13.75,0,23,15.19T190,105Q190,121,183.92,130Z"/><path d="M316.93,111.43a3.76,3.76,0,0,0-4.25,1.82q-8.51,16.6-26.11,16.61-16.2,0-26.12-12.46t-9.92-33.1q0-13.36,6.48-22.27t16.8-8.91a17.64,17.64,0,0,1,11.85,4.25,28.92,28.92,0,0,1,7.39,9.32,42.93,42.93,0,0,0,6.27,9.52c2.56,3,5.47,4.52,8.71,4.65q5.25.21,7.79-2.33a8.63,8.63,0,0,0,2.53-6.37q0-10.53-12-18.73t-28.65-8q-21.46.21-36.24,14T226.64,95.64a48.89,48.89,0,0,0,15.08,36.14q15.08,14.88,37,14.88,17.61,0,28.24-9.31t12.25-22.27C319.43,113.05,318.69,111.84,316.93,111.43Z"/><path d="M433.25,136.43c-1.29-.2-2.47-1.17-3.55-2.93s-1.61-4.38-1.61-7.9V49.28c0-2.7-2.17-3.71-6.49-3l-21.66,3.44c-2.29.41-3.44,1.62-3.44,3.65v.6c0,1,1.31,2.67,3.95,5.16a11.41,11.41,0,0,1,3.95,8.41v42.11q0,12.15-6.18,19.74a19.17,19.17,0,0,1-15.49,7.59q-20.25,0-20.24-32.19l.4-55.47q0-4.05-6.88-3l-21.26,3.44c-2.43.41-3.64,1.62-3.64,3.65v.6q0,1.43,3.84,5.16a11.51,11.51,0,0,1,3.85,8.41v35q0,21.47,10.33,32.8t27.33,11.34q21.45,0,30.37-15.79-.21,8.1,3.84,11.54t12.55,3.44q15.19,0,15.19-5.06a3.3,3.3,0,0,0-1.62-3.14A10.62,10.62,0,0,0,433.25,136.43Z"/><path d="M514.33,91.19q-8.72-2.64-17.31-4.76a43.7,43.7,0,0,1-14.68-6.38,13.55,13.55,0,0,1-6.07-11.74,14.48,14.48,0,0,1,4.86-11.14,19.15,19.15,0,0,1,22-1.82A17,17,0,0,1,509,61.73c1.28,2.5,2.5,5,3.65,7.49a22.71,22.71,0,0,0,4.25,6.38,8.49,8.49,0,0,0,6.38,2.63,9.47,9.47,0,0,0,6.68-2.43,8.17,8.17,0,0,0,2.63-6.28q0-9.3-11.23-16.7t-29.26-7.39q-17.42,0-28.55,8.2T452.38,74.18q0,11.13,6.07,17.92a31.85,31.85,0,0,0,14.78,9.41q8.7,2.64,17.31,4.66a43.51,43.51,0,0,1,14.68,6.17A13.31,13.31,0,0,1,511.29,124q0,7.5-5.16,11.54t-13.46,4a20.54,20.54,0,0,1-10.83-2.63,17.64,17.64,0,0,1-6.48-6.38,70.27,70.27,0,0,1-3.75-7.59,19.34,19.34,0,0,0-4.35-6.48,9.4,9.4,0,0,0-6.78-2.63,10.71,10.71,0,0,0-7.39,2.43,8.74,8.74,0,0,0-2.74,6.88q0,8.92,11.75,16.1t30.57,7.19q19.23,0,30.87-8t11.64-20.14q0-11.14-6.07-17.82A32.14,32.14,0,0,0,514.33,91.19Z"/><path d="M577.9,121.45a16.75,16.75,0,0,0-11.14-3.74,17,17,0,0,0-11.33,3.74Q551,125.2,551,132.29c0,4.58,1.49,8.13,4.46,10.62a17,17,0,0,0,11.33,3.75,16.7,16.7,0,0,0,11.14-3.75c3-2.49,4.45-6,4.45-10.62S580.87,124,577.9,121.45Z"/><path d="M107.9,31.26c1.78,2.52,3.55,3.79,5.33,3.79h2q3.89,0,2.87-4.1L113,5.33C112.2,1.77,110.22,0,107.08,0H26.86q-4.3,0-4.31,2.87v.61c0,1.23,1.27,3.05,3.79,5.44A10.91,10.91,0,0,1,30.14,17V64.47c-5.27-2.38-10.85-4.41-15.22-5.06C10,58.68,6.06,59.26,3.34,61A6.88,6.88,0,0,0,.14,65.3a7.12,7.12,0,0,0,1.33,5.52,6.26,6.26,0,0,0,4.42,2.94A11.91,11.91,0,0,0,11,73.34l-.23.13.68-.23c.09,0,.18,0,.28,0,.83-.28,1.76-.52,2.7-.76a25,25,0,0,1,15.7,2.07v54a10.94,10.94,0,0,1-3.8,8.1c-2.52,2.39-3.79,4.2-3.79,5.43v.61q0,2.86,4.31,2.87H59q4.52,0,4.51-2.87V142q0-1.84-4.2-5.43t-4.2-8.1V79.73c.87.39,12.87,5.15,20.25,4.79,5.52-.27,9.58-1.38,12.38-3.63a7.66,7.66,0,0,0,3.06-5,7.83,7.83,0,0,0-2.07-5.93,6.92,6.92,0,0,0-5.18-2.75,13.35,13.35,0,0,0-5.59,1l.25-.17-.73.33-.3.09c-.88.4-1.87.77-2.89,1.12A37.72,37.72,0,0,1,55.14,71V20.09a11.51,11.51,0,0,1,2-7,6.52,6.52,0,0,1,5.63-2.67H88.84a11.74,11.74,0,0,1,8.51,3.8,27.53,27.53,0,0,1,5.84,8.5A47.67,47.67,0,0,0,107.9,31.26Z"/></g></g></svg>
